# xmcd
#
# Track frame offsets:
#	150
#	15537
#	30796
#	44150
#	58429
#	72609
#	86154
#	101619
#	117034
#	129923
#
# Disc length: 1871 seconds
#
# Revision: 0
# Processed by: cddbd v1.5.2PL0 Copyright (c) Steve Scherf et al.
# Submitted via: EasyCDDAExtractor 16.0.6.1
#
DISCID=87074d0a
DTITLE=Συλλογικός δίσκος - Λαϊκό τραγούδι 1954-1967, 1962-5
DYEAR=2008
DGENRE=Λαϊκή
TTITLE0=Πάνου Πόλυ-Βασιλειάδης Γρ. - Τα νιάτα δεν τα χόρτασα [Γιάννης Παπαϊωάν
TTITLE0=νου-Χ. Βασιλειάδης]
TTITLE1=Πάνου Πόλυ-Τσιτσάνης Βασίλης - Φτώχεια που με κουρέλιασες [Βασίλης Τσι
TTITLE1=τσάνης]
TTITLE2=Αναγνωστάκης Πέτρος-Αντωνάτου Νίτσα - Αυτό το δίσκο που θ' ακούσεις [Μ
TTITLE2=πάμπης Μπακάλης-Φώτ. Ζησούλης]
TTITLE3=Γαβαλάς Πάνος - Ταβέρνα για ταβέρνα [Πάνος Γαβαλάς]
TTITLE4=Αγγελόπουλος Μανώλης-Γκίκα Βούλα - Το κορίτσι μου ζηλεύει [Βασίλης Τσι
TTITLE4=τσάνης]
TTITLE5=Καζαντζίδης Στέλιος - Άνθρωπε άδικε γιατί [Χρήστος Κολοκοτρώνης-Στέλιο
TTITLE5=ς Καζαντζίδης]
TTITLE6=Γαβαλάς Πάνος - Κάθε βήμα μου και πόνος [Γιάννης Παπαϊωάννου]
TTITLE7=Γκρέϋ Καίτη - Τα ξένα χέρια [Βασίλης Τσιτσάνης]
TTITLE8=Λίντα Μαίρη-Χιώτης Μανώλης - Η σκούνα [Μανώλης Χιώτης]
TTITLE9=Λίντα Μαίρη - Τσιγγάνα Μαρία [Μανώλης Χιώτης]
EXTD=
EXTT0=
EXTT1=
EXTT2=
EXTT3=
EXTT4=
EXTT5=
EXTT6=
EXTT7=
EXTT8=
EXTT9=
PLAYORDER=
